<svg xmlns="http://www.w3.org/2000/svg" xmlns:xlink="http://www.w3.org/1999/xlink" width="500" zoomAndPan="magnify" viewBox="0 0 375 374.999991" height="500" preserveAspectRatio="xMidYMid meet" version="1.0"><path fill="#ffe0a9" d="M 276.410156 116.351562 C 276.410156 116.351562 285.183594 106.53125 294.753906 107.832031 C 304.320312 109.132812 309.273438 117.570312 308.660156 126.824219 C 308.046875 136.082031 307.226562 152.121094 295.089844 165.3125 C 282.953125 178.503906 280.773438 175.289062 274.523438 177.242188 C 268.273438 179.195312 261.882812 185.613281 261.441406 189.410156 C 260.996094 193.203125 261.621094 215.085938 261.644531 219.558594 C 261.671875 224.03125 261.867188 222.878906 250.3125 233.109375 C 238.757812 243.339844 225.609375 252.355469 224.359375 255.960938 C 223.105469 259.5625 222.339844 268.480469 222.117188 275.761719 C 221.890625 283.042969 222.082031 287.355469 222.082031 287.355469 L 183.628906 308.816406 C 183.628906 308.816406 170.78125 297.636719 163.085938 293.746094 C 155.386719 289.855469 147.796875 287.792969 147.796875 287.792969 C 147.796875 287.792969 147.804688 271.726562 145.589844 264.367188 C 143.375 257.011719 141.566406 252.3125 141.566406 252.3125 C 141.566406 252.3125 139.667969 255.730469 133.320312 250.226562 C 126.976562 244.726562 100.976562 221.699219 101.035156 214.578125 C 101.09375 207.460938 101.683594 193.734375 102.34375 188.121094 C 103.007812 182.511719 99.839844 174.296875 91.769531 171.882812 C 83.703125 169.472656 74.332031 167.019531 68.492188 155.734375 C 62.652344 144.453125 57.882812 130.054688 60.269531 116.21875 C 62.652344 102.382812 66.113281 101.003906 70.511719 100.980469 C 74.910156 100.953125 75.398438 100.96875 76.273438 99.011719 C 77.148438 97.050781 78.847656 94.785156 82.628906 93.75 C 86.40625 92.710938 88.777344 94.9375 90.671875 96.988281 C 92.5625 99.035156 94.753906 101.921875 94.359375 98.925781 C 93.960938 95.933594 96.375 86.402344 99.898438 77.738281 C 103.425781 69.074219 108.664062 62.949219 108.738281 60.632812 C 108.808594 58.316406 103.660156 56.328125 103.296875 52.175781 C 102.9375 48.023438 106.59375 35.222656 124.410156 22.710938 C 142.226562 10.195312 160.363281 2.992188 179.574219 3.277344 C 198.789062 3.5625 218.308594 9.652344 234.875 21.613281 C 251.445312 33.570312 261.4375 47.472656 261.605469 52.609375 C 261.773438 57.75 257.246094 56.613281 255.675781 60.039062 C 254.105469 63.46875 256.402344 68.179688 260.507812 72.285156 C 264.613281 76.390625 275.550781 86.183594 276.847656 91.6875 C 278.140625 97.195312 276.925781 104.941406 276.925781 104.941406 Z M 276.410156 116.351562 " fill-opacity="1" fill-rule="nonzero"/><path fill="#b2b2b2" d="M 161.472656 193.328125 C 161.472656 193.328125 155.078125 194.613281 147.703125 196.035156 C 140.332031 197.453125 134.882812 194.628906 127.640625 191.746094 C 120.402344 188.867188 118.480469 187.8125 120.640625 191.6875 C 122.800781 195.566406 126.515625 196.515625 120.632812 197.15625 C 114.75 197.792969 108.808594 194.953125 111.804688 198.195312 C 114.796875 201.4375 122.808594 205.835938 117.433594 205.828125 C 112.058594 205.824219 107.339844 205.671875 110.695312 207.765625 C 114.050781 209.863281 119.25 215.496094 128.792969 217.621094 C 138.339844 219.75 143.78125 217.605469 150.761719 218.324219 C 157.742188 219.046875 166.449219 221.972656 170.925781 219.46875 C 175.398438 216.960938 178.828125 211.441406 181.234375 212.675781 C 183.636719 213.914062 189.703125 217.917969 193.441406 218.203125 C 197.175781 218.488281 202.609375 216.671875 207.363281 215.667969 C 212.117188 214.660156 213.988281 212.234375 216.703125 213.980469 C 219.414062 215.722656 226.472656 219.261719 232.003906 219.4375 C 237.539062 219.613281 249.945312 218.6875 252.953125 216.296875 C 255.957031 213.910156 257.789062 212.644531 254.871094 212.21875 C 251.949219 211.792969 249.488281 212.378906 251.867188 209.308594 C 254.242188 206.238281 255.039062 201.460938 254.925781 199.964844 C 254.808594 198.472656 247.933594 199.574219 245 199.648438 C 242.0625 199.71875 243.371094 199.59375 245.398438 197.175781 C 247.429688 194.757812 246.996094 192.921875 245.648438 194.371094 C 244.300781 195.816406 241.042969 195.878906 232.476562 198.914062 C 223.914062 201.953125 217.625 199.929688 215.03125 199.515625 C 212.4375 199.101562 213.597656 198.476562 211.476562 198.574219 C 209.355469 198.671875 209.355469 198.671875 209.355469 198.671875 L 196.839844 192.636719 C 196.839844 192.636719 188.226562 202.464844 179.386719 203.839844 C 170.550781 205.214844 161.472656 193.328125 161.472656 193.328125 Z M 161.472656 193.328125 " fill-opacity="1" fill-rule="nonzero"/><path fill="#666666" d="M 165.28125 196.597656 C 162.769531 193.535156 160.679688 192.640625 153.621094 194.402344 C 146.5625 196.164062 137.925781 196.21875 132.589844 195.054688 C 127.25 193.886719 129.410156 197.765625 135.976562 201.289062 C 142.546875 204.8125 134.097656 204.210938 129.183594 205.046875 C 124.273438 205.882812 127.308594 207.800781 131.527344 208.269531 C 135.746094 208.734375 134.609375 208.699219 131.160156 209.582031 C 127.710938 210.464844 126.355469 212.242188 132.878906 211.957031 C 139.402344 211.667969 141.699219 211.078125 150.746094 213.519531 C 159.792969 215.964844 167.085938 217.191406 172.550781 214.21875 C 178.019531 211.25 178.292969 207.613281 180.183594 209.664062 C 182.078125 211.710938 190.359375 217.769531 200.878906 214.628906 C 211.402344 211.488281 215.730469 208.480469 221.101562 208.652344 C 226.46875 208.824219 234.417969 215.207031 232.394531 212.164062 C 230.371094 209.117188 233.832031 213.035156 240.261719 210.59375 C 246.6875 208.148438 248.394531 205.71875 244.457031 206.585938 C 240.519531 207.453125 233.761719 204.753906 236.445312 202.355469 C 239.125 199.957031 240.304688 198.667969 232.476562 198.914062 C 224.652344 199.160156 219.570312 200.15625 214.898438 198.519531 C 210.226562 196.878906 211.140625 198.894531 206.945312 197.601562 C 202.75 196.308594 197.128906 193.808594 197.128906 193.808594 C 197.128906 193.808594 186.074219 203.558594 180.695312 203.714844 C 175.316406 203.875 165.28125 196.597656 165.28125 196.597656 Z M 165.28125 196.597656 " fill-opacity="1" fill-rule="nonzero"/><path fill="#bf0000" d="M 162.980469 223.519531 C 162.980469 223.519531 156.5625 225.632812 155.835938 228.09375 C 155.105469 230.554688 152.761719 232.632812 160.566406 233.046875 C 168.371094 233.464844 186.296875 233.210938 194.902344 234.148438 C 203.503906 235.085938 206.960938 233.871094 208.96875 232.28125 C 210.96875 230.6875 212.984375 228.765625 212.984375 228.765625 L 204.5 224.023438 C 204.5 224.023438 193.679688 226.324219 182.761719 226.472656 C 171.839844 226.617188 162.980469 223.519531 162.980469 223.519531 Z M 162.980469 223.519531 " fill-opacity="1" fill-rule="nonzero"/><path fill="#720000" d="M 162.980469 223.519531 C 162.980469 223.519531 156.535156 226.460938 155.640625 229.082031 C 154.746094 231.703125 153.285156 228.839844 149.09375 224.894531 C 144.898438 220.953125 143.921875 218.273438 146.6875 218.359375 C 149.453125 218.449219 162.980469 223.519531 162.980469 223.519531 Z M 162.980469 223.519531 " fill-opacity="1" fill-rule="nonzero"/><path fill="#720000" d="M 212.800781 229.421875 L 205.160156 223.710938 C 205.160156 223.710938 216.800781 221.269531 218.285156 220.652344 C 219.769531 220.039062 212.800781 229.421875 212.800781 229.421875 Z M 212.800781 229.421875 " fill-opacity="1" fill-rule="nonzero"/><path fill="#ffffff" d="M 149.898438 219.953125 C 149.898438 219.953125 167.664062 224.828125 179.53125 225.539062 C 191.398438 226.253906 205.511719 222.894531 215.828125 221.070312 C 226.148438 219.25 224.585938 217.046875 221.675781 216.289062 C 218.769531 215.535156 215.433594 212.859375 215.433594 212.859375 C 215.433594 212.859375 202.1875 219.804688 194.898438 218.414062 C 187.613281 217.019531 180.148438 210.820312 180.148438 210.820312 C 180.148438 210.820312 176.472656 219.148438 166.007812 220.46875 C 155.539062 221.792969 149.898438 219.953125 149.898438 219.953125 Z M 149.898438 219.953125 " fill-opacity="1" fill-rule="nonzero"/><path fill="#b2b2b2" d="M 62.789062 145.285156 C 62.789062 145.285156 44.257812 154.628906 39.222656 154.136719 C 34.1875 153.644531 33.570312 152.460938 35.53125 141.761719 C 37.492188 131.058594 42.832031 126.921875 45.105469 121.863281 C 47.382812 116.800781 44.886719 118.542969 40.238281 121.375 C 35.589844 124.207031 32.820312 124.117188 33.84375 117.359375 C 34.871094 110.601562 38.753906 106.089844 38.753906 106.089844 C 38.753906 106.089844 40.574219 105.15625 32.324219 103.398438 C 24.070312 101.644531 20.289062 102.847656 23.785156 100.3125 C 27.285156 97.773438 30.765625 95.894531 36.171875 94.910156 C 41.574219 93.925781 39.59375 89.554688 34.636719 86.582031 C 29.679688 83.605469 22.023438 73.09375 22.265625 60.015625 C 22.507812 46.9375 21.492188 42.933594 26.320312 44.742188 C 31.152344 46.554688 34.605469 50.804688 43.714844 51.097656 C 52.828125 51.386719 55.136719 50.46875 60.648438 51.308594 C 66.160156 52.148438 67.378906 49.703125 64.03125 47.277344 C 60.6875 44.851562 52.359375 40.277344 52.058594 39.4375 C 51.761719 38.601562 57.058594 35.789062 68.171875 34.65625 C 79.28125 33.519531 74.503906 30.054688 68.164062 29.519531 C 61.828125 28.988281 48.945312 29.566406 50.160156 27.121094 C 51.375 24.675781 59.019531 19.785156 71.417969 19.191406 C 83.816406 18.59375 93.746094 24.046875 98.625 24.203125 C 103.507812 24.359375 99.410156 25.222656 105.066406 21.429688 C 110.722656 17.632812 112.425781 20.503906 116.601562 22.296875 C 120.78125 24.085938 120.882812 26.074219 120.882812 26.074219 C 120.882812 26.074219 109.730469 33.835938 105.1875 43.789062 C 100.644531 53.75 100.847656 52.429688 105.628906 55.730469 C 110.414062 59.027344 107.75 60.933594 103.582031 69.246094 C 99.417969 77.558594 97.738281 84.460938 96.132812 88.882812 C 94.53125 93.300781 93.191406 99.71875 93.191406 99.71875 L 85.089844 103.597656 C 85.089844 103.597656 77.484375 96.730469 69.359375 101.4375 C 61.230469 106.148438 59.195312 108.730469 59.027344 119.492188 C 58.855469 130.25 62.789062 145.285156 62.789062 145.285156 Z M 62.789062 145.285156 " fill-opacity="1" fill-rule="nonzero"/><path fill="#b2b2b2" d="M 233.769531 20.582031 C 233.769531 20.582031 244.65625 16.128906 250.820312 16.988281 C 256.984375 17.847656 251.789062 22.484375 250.269531 24.257812 C 248.746094 26.03125 246.550781 28.609375 251.992188 26.464844 C 257.433594 24.320312 266.476562 21.628906 277.617188 19.503906 C 288.761719 17.375 293.675781 21.671875 293.675781 21.671875 C 293.675781 21.671875 295.476562 21.398438 290.90625 26.882812 C 286.339844 32.371094 284.824219 33.976562 283.714844 38.246094 C 282.605469 42.519531 281.480469 41.984375 289.957031 41.761719 C 298.433594 41.535156 304.21875 38.90625 317.25 44.125 C 330.28125 49.34375 349.226562 63.53125 349.226562 63.53125 C 349.226562 63.53125 342.660156 65.144531 334.914062 68.042969 C 327.167969 70.941406 320.222656 74.363281 319.699219 75.507812 C 319.171875 76.648438 324.621094 79.636719 330.859375 83.316406 C 337.097656 86.992188 339.261719 90.707031 342.859375 100.757812 C 346.457031 110.8125 348.777344 114.695312 343.820312 117.023438 C 338.863281 119.347656 334.683594 117.554688 329.65625 116.898438 C 324.625 116.242188 319.554688 111.605469 323.121094 117.515625 C 326.683594 123.429688 328.828125 127.804688 329.140625 133.445312 C 329.457031 139.085938 331.402344 139.3125 324.640625 136.777344 C 317.878906 134.242188 314.695312 131.824219 311.050781 133.859375 C 307.402344 135.894531 307.851562 137.234375 308.152344 127.472656 C 308.453125 117.710938 305.742188 110.667969 300.402344 109.5 C 295.0625 108.335938 292.832031 106.777344 292.832031 106.777344 C 292.832031 106.777344 292.585938 104.117188 288.925781 101.351562 C 285.265625 98.582031 282.617188 99.988281 280.09375 102.558594 C 277.570312 105.128906 276.316406 103.597656 276.917969 99.972656 C 277.515625 96.347656 277.332031 91.703125 272.789062 85.929688 C 268.246094 80.152344 257.785156 70.871094 256.652344 65.371094 C 255.515625 59.867188 252.410156 60.265625 257.367188 57.941406 C 262.328125 55.613281 262.425781 52.472656 259.328125 47.238281 C 256.234375 42.003906 247.425781 31.953125 243.953125 28.363281 C 240.480469 24.773438 233.769531 20.582031 233.769531 20.582031 Z M 233.769531 20.582031 " fill-opacity="1" fill-rule="nonzero"/><path fill="#666666" d="M 252.992188 36.269531 C 252.992188 36.269531 261.449219 31.40625 268.800781 30.648438 C 276.15625 29.890625 271.210938 31.71875 271.851562 42.671875 C 272.488281 53.621094 271.503906 48.621094 293.148438 49.148438 C 314.796875 49.675781 321.582031 56.683594 313.152344 60.722656 C 304.71875 64.757812 300.898438 72.417969 310.996094 77.710938 C 321.09375 83.003906 323.863281 93.527344 324.34375 99.007812 C 324.828125 104.488281 322.242188 103.742188 314.390625 104.816406 C 306.539062 105.890625 315.957031 112.152344 319.289062 120.210938 C 322.625 128.265625 315.789062 122.746094 312.734375 126.789062 C 309.675781 130.832031 309.628906 132.320312 308.660156 126.824219 C 307.691406 121.328125 306.871094 111.035156 301.714844 109.214844 C 296.558594 107.390625 293.921875 108.300781 293.921875 108.300781 C 293.921875 108.300781 292.445312 103.453125 288.617188 100.84375 C 284.789062 98.238281 277.464844 103.300781 277.113281 104.117188 C 276.761719 104.9375 279.148438 96.234375 271.0625 83.886719 C 262.972656 71.535156 254.527344 70.765625 255.460938 61.6875 C 256.394531 52.609375 263.785156 61.128906 261.605469 52.609375 C 259.425781 44.09375 252.992188 36.269531 252.992188 36.269531 Z M 252.992188 36.269531 " fill-opacity="1" fill-rule="nonzero"/><path fill="#666666" d="M 104.242188 42.765625 C 109.390625 35.355469 111.191406 34.046875 102.945312 31.960938 C 94.703125 29.875 92.796875 28.324219 95.234375 33.867188 C 97.667969 39.410156 98.0625 42.402344 93.847656 41.773438 C 89.632812 41.140625 77.292969 39.917969 79.359375 46.773438 C 81.425781 53.628906 89.429688 63.492188 75.308594 61.878906 C 61.1875 60.269531 42.886719 56.867188 47.898438 68.621094 C 52.90625 80.375 55.113281 88.0625 50.871094 93.558594 C 46.628906 99.054688 45.65625 98.859375 50.835938 100.019531 C 56.011719 101.175781 54.980469 113.402344 51.21875 124.375 C 47.460938 135.351562 44.277344 143.367188 51.832031 141.453125 C 59.382812 139.542969 61.339844 139.441406 61.339844 139.441406 C 61.339844 139.441406 55.476562 123.6875 60.878906 112.265625 C 66.28125 100.84375 73.296875 100.570312 73.296875 100.570312 L 76.773438 98.695312 C 76.773438 98.695312 82.414062 90.097656 85.265625 92.675781 C 88.117188 95.25 93.996094 100.074219 93.996094 100.074219 C 93.996094 100.074219 92.335938 90.582031 98.210938 79.675781 C 104.085938 68.765625 109.839844 61.828125 106.566406 57.085938 C 103.292969 52.34375 98.617188 50.867188 104.242188 42.765625 Z M 104.242188 42.765625 " fill-opacity="1" fill-rule="nonzero"/><path fill="#b2b2b2" d="M 206.578125 67.574219 C 198.941406 72.132812 189.324219 82.921875 189.394531 85.90625 C 189.464844 88.890625 194.164062 95.003906 200.011719 95.519531 C 205.859375 96.039062 216.578125 86.445312 222.589844 86.96875 C 228.601562 87.492188 243.363281 89.457031 250.964844 91.191406 C 258.566406 92.925781 260.964844 94.324219 262.910156 89.421875 C 264.851562 84.511719 261.894531 80.113281 254.542969 75.570312 C 247.191406 71.03125 236.378906 62.570312 224.148438 63.003906 C 211.917969 63.441406 206.578125 67.574219 206.578125 67.574219 Z M 206.578125 67.574219 " fill-opacity="1" fill-rule="nonzero"/><path fill="#b2b2b2" d="M 172.4375 96.957031 C 176.089844 93.65625 169.488281 76.492188 163.578125 72.824219 C 157.664062 69.15625 153.503906 66.703125 137.859375 67.03125 C 122.210938 67.359375 110.261719 69.292969 109.027344 72.234375 C 107.796875 75.175781 101.84375 83.433594 100.546875 88.359375 C 99.253906 93.289062 100.847656 94.496094 104.125 93.773438 C 107.40625 93.050781 120.058594 89.480469 126.910156 89.203125 C 133.757812 88.925781 137.714844 87.398438 145.421875 90.957031 C 153.132812 94.515625 169.253906 99.835938 172.4375 96.957031 Z M 172.4375 96.957031 " fill-opacity="1" fill-rule="nonzero"/><path fill="#666666" d="M 200.011719 95.519531 C 194.292969 95.601562 190.578125 89.753906 197.332031 82.019531 C 204.089844 74.285156 216.191406 67.386719 232.851562 71.234375 C 249.507812 75.078125 263.976562 86.472656 261.417969 90.199219 C 258.859375 93.929688 246.921875 90.234375 240.101562 89.519531 C 233.285156 88.800781 223.3125 84.675781 218.007812 87.652344 C 212.703125 90.628906 203.597656 95.472656 200.011719 95.519531 Z M 200.011719 95.519531 " fill-opacity="1" fill-rule="nonzero"/><path fill="#666666" d="M 175.144531 93.730469 C 174.570312 96.234375 171.242188 98.738281 160.753906 95.589844 C 150.265625 92.4375 143.726562 87.921875 130.332031 89.148438 C 116.9375 90.375 104.433594 94.449219 102 94.039062 C 99.570312 93.628906 97.847656 91.421875 102.285156 84.9375 C 106.71875 78.453125 114.367188 73.398438 132.605469 73.652344 C 150.839844 73.90625 161.832031 76.578125 167.429688 85.203125 C 173.023438 93.828125 176.085938 89.621094 175.144531 93.730469 Z M 175.144531 93.730469 " fill-opacity="1" fill-rule="nonzero"/><path fill="#8f0000" d="M 290.242188 102.179688 C 286.671875 99.207031 285.226562 98.539062 279.46875 102.953125 C 273.714844 107.363281 270.554688 110.742188 270.554688 110.742188 C 270.554688 110.742188 265.640625 107.726562 252.550781 104.324219 C 239.464844 100.925781 221.753906 100.855469 210.886719 100.628906 C 200.023438 100.40625 197.21875 104.167969 196.480469 108.242188 C 195.742188 112.320312 195.519531 123.492188 195.519531 123.492188 C 195.519531 123.492188 188.691406 119.171875 183.6875 119.011719 C 178.683594 118.851562 172.101562 122.246094 172.101562 122.246094 C 172.101562 122.246094 173.113281 113.332031 172.410156 108.464844 C 171.703125 103.597656 170.785156 101.707031 165.695312 100.300781 C 160.609375 98.898438 141.914062 99.042969 131.394531 99.449219 C 120.878906 99.859375 98.488281 104.855469 98.488281 104.855469 C 98.488281 104.855469 92.800781 99.207031 89.953125 96.507812 C 87.105469 93.808594 84.960938 92 80.238281 94.582031 C 75.515625 97.164062 75.273438 101.132812 75.273438 101.132812 C 83.230469 100.515625 88.394531 107.390625 89.226562 108.164062 C 89.417969 108.339844 90.261719 108.667969 91.625 109.019531 C 91.007812 109.644531 90.574219 110.230469 90.246094 110.679688 C 89.097656 112.257812 91.445312 131.089844 94.328125 140.621094 C 97.207031 150.15625 99.40625 158.050781 104.394531 158.707031 C 109.382812 159.363281 143.1875 160.445312 152.144531 159.242188 C 161.097656 158.039062 167.695312 158.085938 169.472656 155.945312 C 171.246094 153.808594 171.886719 141.117188 171.628906 137.507812 C 171.375 133.898438 172.34375 134.175781 175.574219 132.417969 C 178.804688 130.65625 184.523438 131.460938 189.503906 132.367188 C 190.792969 132.601562 192.371094 133.0625 194.003906 133.617188 C 193.871094 134.496094 193.941406 135.214844 194.289062 135.585938 C 195.828125 137.207031 195.402344 142.988281 196.238281 151.585938 C 197.070312 160.183594 193.433594 159.199219 202.695312 159.992188 C 211.953125 160.785156 231.417969 163.519531 243.265625 163.527344 C 255.113281 163.535156 257 165.832031 262.1875 164.011719 C 267.375 162.1875 268.902344 156.152344 271.238281 147.777344 C 273.578125 139.40625 277.824219 124.511719 277.730469 119.667969 C 277.636719 114.816406 277.253906 115.425781 278.527344 113.605469 C 279.808594 111.78125 293.601562 108.125 293.601562 108.125 C 293.601562 108.125 293.816406 105.152344 290.242188 102.179688 Z M 161.371094 149.230469 C 158.84375 152.003906 110.636719 150.460938 108.457031 149.894531 C 106.273438 149.328125 105.773438 145.832031 104.03125 138.945312 C 102.289062 132.058594 100.011719 122.792969 100.3125 116.964844 C 100.617188 111.136719 110.386719 111.199219 110.386719 111.199219 C 110.386719 111.199219 110.289062 110.875 110.078125 110.390625 C 112.75 110.199219 115.582031 109.828125 118.511719 109.222656 C 134.125 105.996094 157.480469 105.253906 160.921875 108.59375 C 164.359375 111.933594 163.902344 146.453125 161.371094 149.230469 Z M 259.839844 153.003906 C 257.152344 156.890625 250.855469 155.199219 241.007812 153.640625 C 231.160156 152.085938 220.992188 153 214.398438 152.914062 C 207.804688 152.828125 205.976562 152.644531 204.503906 148.996094 C 203.027344 145.34375 203.9375 139.101562 204.550781 131.730469 C 204.664062 130.339844 204.734375 129.265625 204.742188 128.4375 C 205.089844 125.164062 205.445312 121.65625 205.671875 119.097656 C 206.234375 112.78125 206.265625 111.785156 209.039062 109.019531 C 211.8125 106.25 241.953125 111.316406 254.683594 114.332031 C 267.417969 117.347656 267.328125 120.328125 267.570312 124.308594 C 267.8125 128.292969 262.527344 149.113281 259.839844 153.003906 Z M 259.839844 153.003906 " fill-opacity="1" fill-rule="nonzero"/><path fill="#00a0c6" d="M 135.707031 121.949219 C 132.046875 121.832031 127.144531 122.296875 126.964844 124.152344 C 126.785156 126.011719 125.351562 132.921875 130.488281 136.6875 C 135.625 140.453125 141.507812 139.773438 146.160156 135.449219 C 150.816406 131.125 148.839844 123.984375 148.851562 123.613281 C 148.863281 123.238281 135.707031 121.949219 135.707031 121.949219 Z M 135.707031 121.949219 " fill-opacity="1" fill-rule="nonzero"/><path fill="#00435e" d="M 126.691406 129.113281 C 126.691406 129.113281 132.398438 126.3125 139.324219 127.40625 C 146.253906 128.496094 148.78125 129.695312 148.78125 129.695312 C 148.78125 129.695312 149.484375 126.863281 148.453125 124.59375 C 147.425781 122.324219 142.070312 121.65625 135.707031 121.949219 C 129.347656 122.242188 126.140625 123.257812 126.105469 124.375 C 126.070312 125.492188 126.691406 129.113281 126.691406 129.113281 Z M 126.691406 129.113281 " fill-opacity="1" fill-rule="nonzero"/><path fill="#ffffff" d="M 149.339844 123.625 C 149.082031 123.992188 149.625 138.046875 140.308594 138.988281 C 130.996094 139.933594 126.175781 133.941406 126.421875 129.847656 C 126.671875 125.757812 126.589844 123.230469 126.589844 123.230469 C 126.589844 123.230469 122.523438 125.625 119.011719 128.617188 C 115.496094 131.609375 110.769531 134.316406 116.535156 137.484375 C 122.300781 140.648438 127.75 142.1875 133.867188 141.886719 C 139.984375 141.585938 145.738281 141.273438 151.628906 140.34375 C 157.523438 139.414062 157.992188 136.078125 156.636719 132.554688 C 155.277344 129.035156 149.339844 123.625 149.339844 123.625 Z M 149.339844 123.625 " fill-opacity="1" fill-rule="nonzero"/><path fill="#ffffff" d="M 115.242188 331.503906 L 78.363281 351.828125 L 67.308594 372.316406 L 300.917969 372.957031 L 291.316406 352.070312 L 256.03125 331.230469 Z M 115.242188 331.503906 " fill-opacity="1" fill-rule="nonzero"/><path fill="#ffffff" d="M 125.492188 296.007812 L 136.191406 284.21875 C 136.191406 284.21875 144.589844 285.574219 157.832031 291.753906 C 171.074219 297.933594 182.332031 307.003906 182.332031 307.003906 C 182.332031 307.003906 192.003906 300.625 204.234375 294.949219 C 216.464844 289.277344 233.855469 283.921875 235.746094 283.984375 C 237.636719 284.042969 245.042969 296.242188 245.042969 296.242188 C 245.042969 296.242188 234.457031 297.789062 222.945312 302.550781 C 211.429688 307.316406 199.042969 312.359375 199.042969 312.359375 C 199.042969 312.359375 170.882812 309.59375 168.210938 312.464844 C 165.539062 315.332031 160.484375 306.148438 149.902344 303.007812 C 139.324219 299.871094 125.492188 296.007812 125.492188 296.007812 Z M 125.492188 296.007812 " fill-opacity="1" fill-rule="nonzero"/><path fill="#ff7f00" d="M 168.367188 313.089844 C 168.367188 313.089844 157.210938 306.199219 142.402344 300.59375 C 127.589844 294.984375 115.121094 291.632812 113.234375 297.015625 C 111.34375 302.398438 114.050781 309.484375 115.957031 314.675781 C 117.863281 319.871094 118.214844 319.730469 116.683594 324.65625 C 115.152344 329.582031 114.003906 333.28125 114.203125 337.953125 C 114.402344 342.625 118.164062 343.523438 124.003906 344.023438 C 129.84375 344.519531 140.957031 341.609375 148.734375 340.769531 C 156.511719 339.929688 169.539062 336.304688 169.539062 336.304688 C 169.539062 336.304688 178.953125 338.160156 184.808594 338.195312 C 190.664062 338.222656 196.539062 337.636719 198.488281 335.832031 C 200.4375 334.027344 198.71875 333.972656 203.652344 335.996094 C 208.582031 338.023438 218.699219 339.433594 225.546875 340.742188 C 232.398438 342.050781 240.757812 344.496094 248.734375 342.886719 C 256.703125 341.273438 254.339844 339.800781 254.882812 333.4375 C 255.421875 327.078125 252.5 321.386719 252.5 321.386719 C 252.5 321.386719 257.746094 307.707031 257.921875 301.957031 C 258.101562 296.210938 256.449219 293.980469 246.582031 295.53125 C 236.71875 297.082031 210.109375 305.40625 206.375 309.175781 C 202.644531 312.945312 197.160156 311.992188 197.160156 311.992188 C 197.160156 311.992188 173.183594 307.644531 168.367188 313.089844 Z M 168.367188 313.089844 " fill-opacity="1" fill-rule="nonzero"/><path fill="#ce5300" d="M 202.617188 319.320312 C 202.617188 319.320312 215.320312 315.214844 220.5 314.761719 C 225.679688 314.304688 218.996094 318.757812 225.902344 323.800781 C 232.804688 328.84375 230.921875 334.070312 219.496094 330.4375 C 208.070312 326.804688 202.3125 323.664062 202.3125 323.664062 Z M 202.617188 319.320312 " fill-opacity="1" fill-rule="nonzero"/><path fill="#ce5300" d="M 167.6875 323.800781 C 167.6875 323.800781 159.613281 317.632812 150.214844 315.152344 C 140.820312 312.675781 129.613281 318.695312 139.882812 326.332031 C 150.148438 333.972656 149.621094 328.820312 155.488281 328.542969 C 161.347656 328.265625 167.769531 325.359375 167.769531 325.359375 Z M 167.6875 323.800781 " fill-opacity="1" fill-rule="nonzero"/><path fill="#ffbc6c" d="M 100.894531 208.613281 C 100.894531 208.613281 99.800781 217.6875 107.847656 226.058594 C 115.894531 234.433594 130.578125 249.476562 137.007812 252.167969 C 143.441406 254.859375 146.910156 253.3125 146.910156 253.3125 L 148.015625 259.644531 C 148.015625 259.644531 153.800781 272.746094 171.527344 278.78125 C 189.257812 284.816406 204.609375 278.351562 213.0625 268.351562 C 221.515625 258.355469 226.375 254.039062 226.375 254.039062 C 226.375 254.039062 246.472656 236.132812 252.164062 231.179688 C 257.855469 226.226562 262.394531 221.734375 261.855469 218.074219 C 261.316406 214.414062 254.941406 225.636719 244.597656 233.585938 C 234.253906 241.535156 227.175781 249.09375 215.453125 249.050781 C 203.722656 249.007812 205.578125 247.078125 205.578125 247.078125 C 205.578125 247.078125 205.074219 257.992188 181.441406 258.558594 C 157.804688 259.128906 156.292969 244.835938 156.292969 244.835938 C 156.292969 244.835938 142.371094 247.371094 126.773438 235.609375 C 111.171875 223.847656 99.820312 211.726562 100.894531 208.613281 Z M 100.894531 208.613281 " fill-opacity="1" fill-rule="nonzero"/><path fill="#ffbc6c" d="M 145.261719 185.523438 C 143.71875 188.121094 145.605469 195.46875 147.703125 196.035156 C 149.804688 196.597656 151.382812 193.003906 156.753906 193.175781 C 162.125 193.347656 167.875 197.011719 172.65625 200.3125 C 177.441406 203.613281 180.660156 204.875 185.308594 202.042969 C 189.957031 199.210938 196.558594 191.140625 198.863281 192.953125 C 201.171875 194.765625 200.972656 195.917969 206.945312 197.601562 C 212.921875 199.28125 215.53125 193.902344 215.777344 191.257812 C 216.019531 188.617188 213.925781 182.585938 213.925781 182.585938 C 213.925781 182.585938 216.332031 189.125 213.46875 192.179688 C 210.605469 195.234375 201.703125 188.15625 201.703125 188.15625 C 201.703125 188.15625 193.238281 193.1875 179.570312 192.75 C 165.902344 192.3125 153.898438 180.167969 153.792969 173.042969 C 153.6875 165.917969 150.214844 167.628906 150.558594 172.277344 C 150.90625 176.925781 157.246094 187.726562 157.246094 187.726562 C 157.246094 187.726562 153.453125 189.261719 149.578125 188.144531 C 145.703125 187.027344 145.261719 185.523438 145.261719 185.523438 Z M 145.261719 185.523438 " fill-opacity="1" fill-rule="nonzero"/><path fill="#ffbc6c" d="M 88.65625 119.945312 C 82.429688 115.9375 75.46875 109.253906 69 118.320312 C 62.527344 127.386719 76.296875 150.851562 82.644531 156.355469 C 88.988281 161.855469 91.816406 165.09375 94.511719 162.199219 C 97.210938 159.304688 95.445312 158.421875 91.789062 155.488281 C 88.136719 152.554688 86.859375 151.6875 90.816406 150.15625 C 94.773438 148.625 97.046875 148.867188 97.046875 148.867188 L 91.625 124.015625 Z M 88.65625 119.945312 " fill-opacity="1" fill-rule="nonzero"/><path fill="#ffbc6c" d="M 279 126.039062 C 285.464844 122.4375 292.828125 116.214844 298.722656 125.679688 C 304.617188 135.144531 289.421875 157.679688 282.75 162.765625 C 276.078125 167.851562 273.050781 170.898438 270.539062 167.839844 C 268.027344 164.777344 269.84375 164.007812 273.675781 161.3125 C 277.503906 158.621094 278.832031 157.835938 274.976562 156.054688 C 271.121094 154.273438 268.839844 154.367188 268.839844 154.367188 L 275.789062 129.914062 Z M 279 126.039062 " fill-opacity="1" fill-rule="nonzero"/><path fill="#000000" d="M 100.78125 105.800781 C 100.78125 105.800781 90.824219 95.976562 86.894531 92.683594 C 82.964844 89.390625 80.964844 92.867188 78.765625 94.847656 C 76.566406 96.824219 74.824219 97.886719 74.890625 99.691406 C 74.957031 101.492188 75.394531 101.136719 77.164062 99.203125 C 78.933594 97.273438 78.746094 95.46875 82.542969 95.214844 C 86.335938 94.964844 86.707031 94.851562 92.535156 99.882812 C 98.367188 104.914062 96.171875 106.769531 100.78125 105.800781 Z M 100.78125 105.800781 " fill-opacity="1" fill-rule="nonzero"/><path fill="#000000" d="M 93.644531 107.433594 C 93.644531 107.433594 85.855469 100.539062 77.277344 99.457031 C 68.699219 98.375 60.003906 103.003906 58.359375 114.75 C 56.710938 126.5 58.703125 139.109375 63.324219 149.691406 C 67.941406 160.273438 70.554688 162.777344 75.445312 166.476562 C 80.339844 170.171875 86.378906 170.488281 91.78125 173.457031 C 97.1875 176.425781 97.988281 184.089844 101.851562 185.640625 C 105.710938 187.195312 102.765625 179.773438 98.464844 174.726562 C 94.160156 169.683594 92.792969 170.386719 84.925781 168.082031 C 77.054688 165.78125 76 162.394531 71.292969 156.652344 C 66.582031 150.914062 61.734375 141.8125 60.941406 131.914062 C 60.148438 122.011719 61.117188 110.492188 66.265625 105.9375 C 71.417969 101.378906 78.9375 101.1875 83.5625 105.621094 C 88.191406 110.054688 90.269531 113.910156 91.402344 112.765625 C 92.539062 111.621094 93.644531 107.433594 93.644531 107.433594 Z M 93.644531 107.433594 " fill-opacity="1" fill-rule="nonzero"/><path fill="#000000" d="M 91.960938 122.347656 C 91.226562 120.871094 85.15625 113.371094 78.628906 111.050781 C 72.105469 108.730469 70.460938 114.457031 70.625 115.144531 C 70.785156 115.832031 71.964844 115.25 74.539062 114.957031 C 77.113281 114.667969 78.394531 114.769531 75.820312 116.925781 C 73.25 119.078125 71.703125 123.625 71.402344 125.539062 C 71.097656 127.457031 72.304688 127.929688 73.808594 124.746094 C 75.3125 121.566406 77.808594 117.859375 80.804688 117.707031 C 83.804688 117.554688 82.984375 118.332031 84.179688 119.179688 C 85.375 120.023438 82.359375 120.859375 81.316406 124.925781 C 80.273438 128.992188 80.300781 130.109375 82.039062 127.183594 C 83.777344 124.257812 85.855469 122.277344 86.617188 121.371094 C 87.378906 120.460938 88.550781 122.050781 90.671875 124.542969 C 92.792969 127.035156 92.304688 123.042969 91.960938 122.347656 Z M 91.960938 122.347656 " fill-opacity="1" fill-rule="nonzero"/><path fill="#000000" d="M 93.125 136.109375 C 91.597656 138.050781 90.984375 140.078125 86.582031 140.3125 C 82.175781 140.542969 81.300781 139.210938 80.347656 140.421875 C 79.394531 141.632812 81.648438 141.828125 86.632812 142.546875 C 91.621094 143.269531 93.28125 140.835938 94.496094 139.199219 C 95.707031 137.5625 93.125 136.109375 93.125 136.109375 Z M 93.125 136.109375 " fill-opacity="1" fill-rule="nonzero"/><path fill="#000000" d="M 94.402344 148.015625 C 91.542969 148.503906 87.777344 149.042969 87.664062 152.707031 C 87.546875 156.367188 93.597656 156.3125 94.980469 159.027344 C 96.359375 161.742188 91.445312 162.765625 87.964844 160.601562 C 84.492188 158.441406 81.183594 152.808594 79.71875 152.761719 C 78.253906 152.714844 79.617188 156.113281 84.511719 159.746094 C 89.40625 163.382812 92.269531 165.585938 95.488281 162.273438 C 98.707031 158.960938 94.40625 155.777344 92.683594 154.230469 C 90.960938 152.6875 90.609375 150.191406 94.039062 149.992188 C 97.464844 149.789062 97.167969 147.542969 94.402344 148.015625 Z M 94.402344 148.015625 " fill-opacity="1" fill-rule="nonzero"/><path fill="#000000" d="M 173.722656 154.777344 C 173.808594 157.949219 172.074219 158.703125 162.339844 159.382812 C 152.605469 160.066406 131.367188 161.558594 116.230469 161.074219 C 101.101562 160.589844 98.808594 159.644531 96.910156 157.847656 C 95.011719 156.046875 93.363281 142.207031 91.292969 132.140625 C 89.222656 122.074219 87.300781 113.070312 90.171875 109.1875 C 93.039062 105.304688 103.695312 100.488281 116.953125 98.429688 C 130.210938 96.371094 133.167969 97.457031 146.859375 97.152344 C 160.550781 96.84375 171.90625 97.023438 173.28125 104.023438 C 174.648438 111.023438 173.328125 126.074219 173.3125 136.507812 C 173.292969 146.9375 175.269531 156.070312 172.304688 157.09375 C 169.34375 158.117188 168.449219 157.34375 169.667969 143.71875 C 170.882812 130.09375 171.039062 117.179688 170.996094 110.65625 C 170.953125 104.132812 170.601562 101.640625 162.628906 100.824219 C 154.652344 100.007812 138.582031 100.117188 123.382812 101.863281 C 108.179688 103.613281 97.59375 106.132812 94.304688 109.753906 C 91.019531 113.375 91.84375 122.21875 95.121094 134.683594 C 98.402344 147.148438 99.769531 154.210938 102.519531 156.164062 C 105.269531 158.113281 117.859375 157.832031 133.734375 158.09375 C 149.605469 158.355469 164.421875 157.214844 166.988281 155.308594 C 169.550781 153.402344 168.90625 138.726562 170.546875 144.925781 C 172.1875 151.128906 173.722656 154.777344 173.722656 154.777344 Z M 173.722656 154.777344 " fill-opacity="1" fill-rule="nonzero"/><path fill="#000000" d="M 164.585938 147.964844 C 164.578125 150.199219 164.667969 151.261719 160.996094 151.574219 C 157.320312 151.894531 131.460938 152.554688 119.261719 152.039062 C 107.0625 151.527344 107.789062 151.734375 105.925781 148.757812 C 104.0625 145.777344 98.953125 127.417969 98.90625 120.957031 C 98.863281 114.496094 99.261719 113.390625 104.945312 111.335938 C 110.628906 109.28125 124.242188 105.621094 138.554688 104.960938 C 152.867188 104.300781 162.238281 105.53125 162.648438 107.96875 C 163.0625 110.402344 164.066406 117.453125 164.464844 130.257812 C 164.859375 143.066406 165.097656 147.296875 164.296875 149.382812 C 163.5 151.46875 160.859375 150.019531 161.574219 144.699219 C 162.289062 139.382812 162.3125 128.699219 162.300781 121.183594 C 162.289062 113.667969 161.460938 110.910156 159.300781 109.660156 C 157.140625 108.410156 144.070312 108.367188 135.027344 108.511719 C 125.980469 108.65625 117.136719 110.234375 110.679688 111.582031 C 104.226562 112.925781 101.523438 113.339844 101.453125 119.671875 C 101.378906 126.003906 104.003906 135.839844 105.425781 141.226562 C 106.847656 146.613281 106.871094 147.792969 108.628906 148.285156 C 110.382812 148.773438 125.472656 148.761719 134.75 148.933594 C 144.027344 149.109375 158.542969 149.882812 160.515625 147.273438 C 162.488281 144.667969 162.136719 130.433594 163.070312 137.792969 C 164.003906 145.152344 164.585938 147.964844 164.585938 147.964844 Z M 164.585938 147.964844 " fill-opacity="1" fill-rule="nonzero"/><path fill="#000000" d="M 95.667969 151.222656 C 95.667969 151.222656 98.152344 155.195312 99.675781 169.074219 C 101.199219 182.949219 99.585938 206.167969 98.8125 212.6875 C 98.042969 219.203125 97.511719 217.945312 105.410156 225.816406 C 113.3125 233.6875 125.8125 248.164062 134.113281 253.566406 C 142.417969 258.96875 142.40625 256.730469 149.363281 252.898438 C 156.324219 249.058594 159.132812 240.828125 156.683594 242.695312 C 155.851562 243.332031 149.261719 250.988281 144.488281 252.574219 C 139.714844 254.160156 130.128906 248.136719 124.292969 241.988281 C 118.457031 235.839844 107.035156 223.300781 104.457031 219.824219 C 101.875 216.347656 100.355469 215.46875 101.511719 209.792969 C 102.664062 204.113281 104.472656 187.691406 103.816406 177.402344 C 103.15625 167.113281 103.402344 159.253906 101.484375 158.035156 C 99.566406 156.8125 95.667969 151.222656 95.667969 151.222656 Z M 95.667969 151.222656 " fill-opacity="1" fill-rule="nonzero"/><path fill="#000000" d="M 268.082031 111.160156 C 268.082031 111.160156 278.628906 101.992188 282.753906 98.957031 C 286.878906 95.921875 288.660156 99.519531 290.730469 101.636719 C 292.804688 103.753906 294.476562 104.921875 294.300781 106.71875 C 294.125 108.515625 293.707031 108.128906 292.0625 106.085938 C 290.414062 104.046875 290.714844 102.257812 286.941406 101.761719 C 283.171875 101.269531 282.808594 101.132812 276.675781 105.78125 C 270.546875 110.429688 272.625 112.421875 268.082031 111.160156 Z M 268.082031 111.160156 " fill-opacity="1" fill-rule="nonzero"/><path fill="#000000" d="M 275.101562 113.246094 C 275.101562 113.246094 283.300781 106.863281 291.929688 106.332031 C 300.558594 105.800781 308.953125 110.976562 309.867188 122.808594 C 310.78125 134.636719 308.015625 147.09375 302.75 157.359375 C 297.484375 167.625 294.722656 169.957031 289.609375 173.335938 C 284.496094 176.710938 278.453125 176.640625 272.875 179.257812 C 267.296875 181.875 265.761719 188.839844 262.074219 190.773438 C 259.730469 192.003906 261.523438 184.855469 266.128906 180.097656 C 270.734375 175.339844 272.054688 176.125 280.050781 174.332031 C 288.046875 172.539062 289.308594 169.226562 294.363281 163.796875 C 299.417969 158.371094 304.824219 149.601562 306.226562 139.769531 C 307.628906 129.9375 307.378906 118.378906 302.519531 113.503906 C 297.664062 108.628906 290.171875 107.953125 285.277344 112.082031 C 280.386719 116.210938 278.070312 119.925781 277.011719 118.710938 C 275.949219 117.496094 275.101562 113.246094 275.101562 113.246094 Z M 275.101562 113.246094 " fill-opacity="1" fill-rule="nonzero"/><path fill="#000000" d="M 275.859375 128.238281 C 276.683594 126.8125 283.210938 119.71875 289.867188 117.820312 C 296.519531 115.917969 297.804688 121.738281 297.601562 122.414062 C 297.398438 123.089844 296.257812 122.433594 293.707031 121.976562 C 291.15625 121.523438 289.871094 121.542969 292.304688 123.859375 C 294.738281 126.171875 295.996094 130.808594 296.183594 132.742188 C 296.367188 134.671875 295.132812 135.066406 293.832031 131.796875 C 292.527344 128.523438 290.261719 124.664062 287.28125 124.320312 C 284.300781 123.976562 285.066406 124.808594 283.820312 125.574219 C 282.578125 126.34375 285.535156 127.367188 286.328125 131.492188 C 287.113281 135.617188 287.019531 136.734375 285.464844 133.703125 C 283.90625 130.671875 281.957031 128.558594 281.253906 127.605469 C 280.550781 126.648438 279.285156 128.164062 277.011719 130.511719 C 274.738281 132.859375 275.472656 128.910156 275.859375 128.238281 Z M 275.859375 128.238281 " fill-opacity="1" fill-rule="nonzero"/><path fill="#000000" d="M 273.847656 141.898438 C 275.25 143.933594 275.738281 145.996094 280.121094 146.511719 C 284.503906 147.023438 285.457031 145.75 286.332031 147.019531 C 287.210938 148.289062 284.949219 148.34375 279.929688 148.742188 C 274.90625 149.140625 273.398438 146.605469 272.289062 144.894531 C 271.183594 143.179688 273.847656 141.898438 273.847656 141.898438 Z M 273.847656 141.898438 " fill-opacity="1" fill-rule="nonzero"/><path fill="#000000" d="M 271.832031 153.699219 C 274.660156 154.367188 278.386719 155.148438 278.273438 158.8125 C 278.160156 162.472656 272.125 162.03125 270.578125 164.652344 C 269.03125 167.273438 273.875 168.609375 277.476562 166.671875 C 281.082031 164.738281 284.730469 159.328125 286.195312 159.375 C 287.660156 159.421875 286.089844 162.726562 280.980469 166.039062 C 275.867188 169.355469 272.875 171.371094 269.867188 167.859375 C 266.863281 164.34375 271.351562 161.445312 273.164062 160.015625 C 274.980469 158.582031 275.484375 156.113281 272.078125 155.695312 C 268.671875 155.273438 269.105469 153.050781 271.832031 153.699219 Z M 271.832031 153.699219 " fill-opacity="1" fill-rule="nonzero"/><path fill="#000000" d="M 192.253906 155.375 C 191.972656 158.53125 193.65625 159.390625 203.328125 160.695312 C 213 162 234.105469 164.847656 249.238281 165.335938 C 264.371094 165.820312 266.71875 165.023438 268.726562 163.347656 C 270.730469 161.675781 273.234375 147.96875 275.921875 138.054688 C 278.613281 128.140625 281.085938 119.277344 278.460938 115.21875 C 275.839844 111.160156 265.503906 105.671875 252.402344 102.769531 C 239.296875 99.863281 236.273438 100.761719 222.628906 99.578125 C 208.984375 98.394531 197.640625 97.847656 195.839844 104.746094 C 194.035156 111.644531 194.425781 126.75 193.796875 137.164062 C 193.167969 147.578125 190.628906 156.5625 193.523438 157.773438 C 196.417969 158.984375 197.355469 158.269531 196.984375 144.59375 C 196.617188 130.917969 197.261719 118.019531 197.707031 111.511719 C 198.152344 105.003906 198.65625 102.539062 206.667969 102.234375 C 214.679688 101.933594 230.707031 103.066406 245.769531 105.785156 C 260.835938 108.503906 271.242188 111.695312 274.300781 115.519531 C 277.359375 119.34375 275.988281 128.117188 271.941406 140.347656 C 267.898438 152.578125 266.09375 159.539062 263.230469 161.3125 C 260.367188 163.082031 247.816406 161.996094 231.960938 161.242188 C 216.101562 160.484375 201.382812 158.398438 198.945312 156.332031 C 196.503906 154.265625 198.054688 139.660156 196.035156 145.742188 C 194.011719 151.828125 192.253906 155.375 192.253906 155.375 Z M 192.253906 155.375 " fill-opacity="1" fill-rule="nonzero"/><path fill="#000000" d="M 201.792969 149.15625 C 201.664062 151.386719 201.507812 152.441406 205.15625 152.992188 C 208.804688 153.542969 234.570312 155.859375 246.777344 156.125 C 258.984375 156.394531 258.246094 156.554688 260.289062 153.703125 C 262.332031 150.847656 268.570312 132.851562 269.015625 126.40625 C 269.457031 119.960938 269.128906 118.832031 263.582031 116.417969 C 258.039062 114.003906 244.679688 109.476562 230.433594 107.902344 C 216.191406 106.328125 206.765625 106.957031 206.203125 109.363281 C 205.636719 111.765625 204.199219 118.738281 203.011719 131.496094 C 201.824219 144.25 201.324219 148.457031 201.992188 150.59375 C 202.660156 152.722656 205.386719 151.445312 205.003906 146.09375 C 204.617188 140.738281 205.253906 130.078125 205.730469 122.578125 C 206.207031 115.078125 207.207031 112.375 209.441406 111.265625 C 211.675781 110.160156 224.722656 110.949219 233.738281 111.671875 C 242.757812 112.398438 251.484375 114.539062 257.84375 116.296875 C 264.203125 118.050781 266.871094 118.632812 266.554688 124.960938 C 266.238281 131.285156 263.007812 140.933594 261.253906 146.21875 C 259.503906 151.5 259.40625 152.679688 257.621094 153.058594 C 255.839844 153.433594 240.78125 152.457031 231.511719 152.035156 C 222.238281 151.613281 207.707031 151.457031 205.898438 148.730469 C 204.089844 146 205.324219 131.816406 203.9375 139.101562 C 202.550781 146.386719 201.792969 149.15625 201.792969 149.15625 Z M 201.792969 149.15625 " fill-opacity="1" fill-rule="nonzero"/><path fill="#000000" d="M 270.371094 156.820312 C 270.371094 156.820312 267.648438 160.625 265.269531 174.378906 C 262.886719 188.128906 263.0625 211.40625 263.429688 217.960938 C 263.796875 224.511719 264.402344 223.289062 256.03125 230.640625 C 247.660156 237.992188 234.289062 251.640625 225.667969 256.5 C 217.046875 261.359375 217.199219 259.125 210.492188 254.851562 C 203.78125 250.582031 201.429688 246.152344 203.816406 244.207031 C 203.816406 244.207031 212.355469 254.332031 217.023438 256.222656 C 221.6875 258.109375 229.734375 250.667969 235.941406 244.902344 C 242.144531 239.140625 254.59375 229.019531 257.382812 225.714844 C 260.175781 222.410156 261.429688 221.289062 260.628906 215.550781 C 259.832031 209.8125 260.046875 192.34375 261.339844 182.117188 C 262.636719 171.890625 263.882812 163.152344 265.871094 162.058594 C 267.859375 160.960938 270.371094 156.820312 270.371094 156.820312 Z M 270.371094 156.820312 " fill-opacity="1" fill-rule="nonzero"/><path fill="#000000" d="M 172.9375 120.324219 C 172.9375 120.324219 175.945312 117.769531 183.515625 118.011719 C 191.082031 118.257812 193.625 120.242188 195.128906 121.699219 C 196.628906 123.15625 196.882812 125.480469 194.234375 124.238281 C 191.585938 122.992188 188.128906 121.558594 182.917969 121.472656 C 177.707031 121.390625 174.480469 123.105469 173.242188 123.648438 C 172.003906 124.1875 172.9375 120.324219 172.9375 120.324219 Z M 172.9375 120.324219 " fill-opacity="1" fill-rule="nonzero"/><path fill="#000000" d="M 183.386719 130.015625 C 179.960938 129.863281 174.003906 130.542969 172.710938 132.820312 C 171.421875 135.101562 172.96875 135.066406 172.96875 135.066406 C 172.96875 135.066406 175.078125 132.730469 181.921875 132.539062 C 188.769531 132.34375 194.289062 135.585938 194.289062 135.585938 L 195.347656 132.96875 C 195.347656 132.96875 189.648438 130.300781 183.386719 130.015625 Z M 183.386719 130.015625 " fill-opacity="1" fill-rule="nonzero"/><path fill="#000000" d="M 155.410156 136.574219 C 153.882812 138.597656 151.558594 140.011719 140.558594 140.238281 C 129.554688 140.46875 123.085938 139.015625 119.234375 137.15625 C 115.382812 135.292969 114.785156 133.617188 117.363281 131.796875 C 119.945312 129.972656 123.011719 125.597656 124.980469 125.164062 C 126.949219 124.730469 130.273438 122.519531 139.808594 122.328125 C 149.34375 122.136719 148.460938 124.34375 151.519531 128.085938 C 154.582031 131.828125 156.984375 135.714844 154.449219 138.695312 C 151.914062 141.679688 156.675781 140.425781 158.097656 136.578125 C 159.523438 132.730469 157.179688 129.507812 155.121094 127.539062 C 153.066406 125.570312 153.277344 124 152.738281 122.992188 C 152.199219 121.980469 150.140625 120.007812 140.03125 120.429688 C 129.921875 120.851562 125.511719 121.207031 121.269531 124.050781 C 117.027344 126.898438 113.4375 129.679688 112.554688 131.972656 C 111.667969 134.261719 113.921875 137.730469 119.117188 140.878906 C 124.316406 144.023438 129.503906 142.203125 138.859375 142.421875 C 148.21875 142.636719 155.800781 142.46875 157.257812 140.027344 C 158.71875 137.589844 156.945312 137.039062 158.007812 134.339844 C 159.066406 131.640625 155.410156 136.574219 155.410156 136.574219 Z M 155.410156 136.574219 " fill-opacity="1" fill-rule="nonzero"/><path fill="#000000" d="M 126.589844 123.230469 C 126.589844 123.230469 122.96875 127.007812 125 132.371094 C 127.035156 137.734375 132.960938 140.90625 137.683594 140.976562 C 142.40625 141.042969 148.03125 138.160156 149.929688 132.175781 C 151.824219 126.191406 149.804688 122.980469 149.804688 122.980469 C 149.804688 122.980469 134.425781 119.921875 132.660156 121.769531 C 130.890625 123.617188 130.195312 122.515625 132.984375 124.429688 C 135.777344 126.339844 133.339844 126.09375 133.832031 128.679688 C 134.320312 131.261719 139.636719 133.171875 142.402344 130.609375 C 145.167969 128.046875 141.761719 124.957031 144.996094 125.804688 C 148.226562 126.65625 147.277344 130.933594 144.488281 134.320312 C 141.695312 137.707031 134.757812 138.148438 130.652344 134.042969 C 126.542969 129.9375 127.609375 124.421875 129.773438 122.917969 C 131.9375 121.414062 126.589844 123.230469 126.589844 123.230469 Z M 126.589844 123.230469 " fill-opacity="1" fill-rule="nonzero"/><path fill="#000000" d="M 136.105469 110.449219 C 131.894531 112.21875 123.402344 115.59375 117.898438 119.722656 C 112.394531 123.851562 108.40625 123.890625 112.667969 120.300781 C 116.933594 116.710938 124.945312 110.507812 130.824219 109.949219 C 136.707031 109.394531 136.105469 110.449219 136.105469 110.449219 Z M 136.105469 110.449219 " fill-opacity="1" fill-rule="nonzero"/><path fill="#00a0c6" d="M 237.210938 125.199219 C 240.875 125.316406 245.734375 126.09375 245.800781 127.957031 C 245.867188 129.824219 246.871094 136.8125 241.511719 140.242188 C 236.152344 143.671875 230.320312 142.617188 225.941406 138.003906 C 221.566406 133.394531 223.980469 126.390625 223.992188 126.019531 C 224.003906 125.644531 237.210938 125.199219 237.210938 125.199219 Z M 237.210938 125.199219 " fill-opacity="1" fill-rule="nonzero"/><path fill="#00435e" d="M 243.816406 132.863281 C 243.816406 132.863281 238.292969 129.707031 231.3125 130.351562 C 224.328125 131 221.730469 132.03125 221.730469 132.03125 C 221.730469 132.03125 221.210938 129.160156 222.375 126.960938 C 223.542969 124.761719 228.929688 124.4375 235.261719 125.136719 C 241.589844 125.835938 244.730469 127.054688 244.695312 128.171875 C 244.660156 129.289062 243.816406 132.863281 243.816406 132.863281 Z M 243.816406 132.863281 " fill-opacity="1" fill-rule="nonzero"/><path fill="#ffffff" d="M 221.550781 125.941406 C 221.785156 126.320312 220.375 140.3125 229.609375 141.851562 C 238.847656 143.386719 244.03125 137.714844 244.039062 133.617188 C 244.042969 129.519531 244.28125 127 244.28125 127 C 244.28125 127 248.191406 129.648438 251.511719 132.863281 C 254.835938 136.074219 259.382812 139.078125 253.433594 141.867188 C 247.480469 144.65625 241.949219 145.847656 235.859375 145.15625 C 229.773438 144.464844 224.054688 143.785156 218.230469 142.480469 C 212.40625 141.175781 212.144531 137.8125 213.714844 134.382812 C 215.289062 130.957031 221.550781 125.941406 221.550781 125.941406 Z M 221.550781 125.941406 " fill-opacity="1" fill-rule="nonzero"/><path fill="#000000" d="M 214.691406 138.472656 C 216.089844 140.589844 218.324219 142.148438 229.289062 143.082031 C 240.253906 144.011719 246.800781 142.980469 250.761719 141.367188 C 254.71875 139.753906 255.421875 138.121094 252.957031 136.136719 C 250.496094 134.15625 247.703125 129.59375 245.765625 129.035156 C 243.832031 128.476562 240.648438 126.054688 231.144531 125.253906 C 221.640625 124.453125 222.382812 126.710938 219.097656 130.25 C 215.8125 133.789062 213.171875 137.511719 215.519531 140.652344 C 217.863281 143.792969 213.1875 142.234375 212.007812 138.304688 C 210.824219 134.375 213.363281 131.308594 215.539062 129.472656 C 217.714844 127.640625 217.597656 126.0625 218.199219 125.089844 C 218.800781 124.113281 220.976562 122.277344 231.039062 123.34375 C 241.105469 124.414062 245.484375 125.050781 249.539062 128.164062 C 253.597656 131.273438 257.007812 134.28125 257.75 136.621094 C 258.492188 138.964844 256.027344 142.28125 250.644531 145.089844 C 245.265625 147.898438 240.199219 145.75 230.847656 145.367188 C 221.492188 144.984375 213.9375 144.328125 212.632812 141.800781 C 211.324219 139.277344 213.128906 138.835938 212.238281 136.074219 C 211.347656 133.316406 214.691406 138.472656 214.691406 138.472656 Z M 214.691406 138.472656 " fill-opacity="1" fill-rule="nonzero"/><path fill="#000000" d="M 244.28125 127 C 244.28125 127 247.660156 131 245.300781 136.222656 C 242.9375 141.449219 236.828125 144.234375 232.109375 144 C 227.394531 143.765625 221.957031 140.527344 220.433594 134.433594 C 218.914062 128.339844 221.125 125.265625 221.125 125.265625 C 221.125 125.265625 236.664062 123.195312 238.3125 125.152344 C 239.964844 127.109375 240.730469 126.058594 237.824219 127.785156 C 234.917969 129.515625 237.367188 129.429688 236.71875 131.972656 C 236.066406 134.519531 230.644531 136.085938 228.042969 133.351562 C 225.4375 130.621094 229.03125 127.753906 225.753906 128.394531 C 222.472656 129.035156 223.15625 133.363281 225.734375 136.921875 C 228.308594 140.484375 235.203125 141.367188 239.558594 137.53125 C 243.914062 133.695312 243.1875 128.125 241.121094 126.484375 C 239.054688 124.84375 244.28125 127 244.28125 127 Z M 244.28125 127 " fill-opacity="1" fill-rule="nonzero"/><path fill="#000000" d="M 235.578125 113.636719 C 239.667969 115.671875 247.933594 119.582031 253.171875 124.054688 C 258.40625 128.527344 262.390625 128.820312 258.355469 124.964844 C 254.320312 121.109375 246.710938 114.40625 240.875 113.476562 C 235.042969 112.542969 235.578125 113.636719 235.578125 113.636719 Z M 235.578125 113.636719 " fill-opacity="1" fill-rule="nonzero"/><path fill="#000000" d="M 192.222656 162.84375 C 191.976562 163.117188 190.21875 161.789062 186.570312 161.257812 C 182.921875 160.726562 173.484375 160.507812 164.605469 163.121094 C 155.730469 165.734375 152.589844 169.773438 154.601562 175.800781 C 156.617188 181.828125 162.648438 189.558594 170.597656 195.773438 C 178.550781 201.992188 178.785156 202.246094 183.980469 200.175781 C 189.175781 198.109375 194.09375 194.457031 198.957031 189.972656 C 203.820312 185.492188 203.863281 186.652344 202.054688 189.824219 C 200.246094 192.996094 186.953125 204.164062 181.148438 204.890625 C 175.34375 205.617188 164.726562 198.648438 158.160156 189.746094 C 151.597656 180.839844 149.582031 177.546875 150.949219 170.136719 C 152.320312 162.726562 156.261719 159.042969 167.695312 158.085938 C 179.125 157.125 183.773438 157.027344 187.148438 158.460938 C 190.523438 159.894531 193.402344 161.558594 192.222656 162.84375 Z M 192.222656 162.84375 " fill-opacity="1" fill-rule="nonzero"/><path fill="#000000" d="M 148.070312 181.636719 C 147.886719 180.246094 146.027344 181.902344 143.621094 183.316406 C 141.214844 184.730469 141.839844 188.144531 142.480469 191.144531 C 143.121094 194.148438 143.949219 196.328125 146.5625 196.164062 C 149.171875 196 149.945312 194.699219 147.328125 192.460938 C 144.710938 190.222656 144.9375 188.160156 146.871094 186.234375 C 148.800781 184.3125 148.269531 183.132812 148.070312 181.636719 Z M 148.070312 181.636719 " fill-opacity="1" fill-rule="nonzero"/><path fill="#000000" d="M 160.667969 192.972656 C 157.375 191.542969 157.074219 190.703125 153.105469 192.5625 C 149.140625 194.421875 143.320312 195.5625 134.363281 192.957031 C 125.40625 190.351562 119.910156 186.28125 118.671875 186.824219 C 117.433594 187.363281 117.613281 189.4375 119.386719 192.726562 C 121.15625 196.011719 121.742188 195.535156 117.359375 194.980469 C 112.980469 194.425781 109.175781 193.722656 108.613281 196.105469 C 108.050781 198.492188 112.3125 200.199219 115.253906 202.53125 C 118.195312 204.859375 117.078125 204.164062 113.65625 204.136719 C 110.238281 204.109375 108.203125 204.128906 108.609375 206.707031 C 109.019531 209.285156 114.308594 212.023438 120.230469 215.441406 C 126.148438 218.863281 132.234375 219.636719 135.238281 219.898438 C 138.242188 220.160156 139.097656 221.59375 142.046875 220.945312 C 145 220.292969 145.84375 216.71875 151.402344 218.71875 C 156.957031 220.71875 167.921875 222.972656 172.742188 219.898438 C 177.558594 216.824219 179.160156 213.8125 180.625 213.941406 C 182.085938 214.070312 188.445312 219.035156 193.304688 219.9375 C 198.164062 220.835938 200.921875 218.523438 207.082031 216.898438 C 213.238281 215.273438 217.800781 212.6875 221.707031 212.730469 C 225.617188 212.773438 227.085938 212.570312 227.105469 211.910156 C 227.128906 211.25 220.8125 210.054688 215.53125 212.367188 C 210.246094 214.683594 201.605469 217.550781 194.292969 216.988281 C 186.980469 216.421875 183.933594 212.265625 182.238281 209.066406 C 180.546875 205.863281 180.007812 204.933594 177.949219 208.265625 C 175.890625 211.59375 173.214844 219.128906 166.621094 219 C 160.027344 218.871094 150.59375 215.835938 145.503906 214.597656 C 140.410156 213.355469 138.699219 213.382812 141.417969 214.964844 C 144.136719 216.539062 142.089844 216.972656 136.722656 216.632812 C 131.359375 216.296875 122.839844 215.277344 116.152344 210.34375 C 109.464844 205.410156 110.402344 206.597656 115.453125 206.59375 C 120.503906 206.589844 121.746094 205.886719 122.105469 204.738281 C 122.46875 203.589844 118.042969 201.875 115.503906 199.722656 C 112.964844 197.570312 114.746094 197.960938 121.316406 198.75 C 127.890625 199.539062 129.898438 200.433594 126.59375 196.601562 C 123.292969 192.769531 118.535156 188.558594 123.660156 191.453125 C 128.78125 194.351562 132.710938 196.382812 139.859375 196.941406 C 147.007812 197.5 149.058594 197.070312 153.09375 195.625 C 157.128906 194.183594 163.816406 196.550781 165.867188 198.6875 C 167.917969 200.820312 160.667969 192.972656 160.667969 192.972656 Z M 160.667969 192.972656 " fill-opacity="1" fill-rule="nonzero"/><path fill="#000000" d="M 214.265625 213.734375 C 214.265625 213.734375 217.511719 216.738281 225.175781 219.050781 C 232.839844 221.367188 244.242188 221.320312 251.269531 217.984375 C 258.296875 214.648438 258.660156 210.769531 256.953125 210.714844 C 255.242188 210.660156 249.976562 212.394531 252.578125 209.992188 C 253.878906 208.789062 256.800781 205.078125 257.335938 201.035156 C 257.867188 196.996094 258.402344 198.089844 252.695312 198.320312 C 246.984375 198.550781 244.117188 199.652344 245.871094 197.769531 C 249.238281 194.152344 249.695312 191.453125 245.015625 193.851562 C 240.296875 196.269531 237.667969 197.09375 228.011719 198.441406 C 218.359375 199.789062 213.382812 197.558594 212.234375 197.769531 C 211.085938 197.980469 209.03125 198.660156 213.554688 199.800781 C 218.082031 200.9375 226.304688 200.953125 232.78125 199.671875 C 239.253906 198.386719 245.875 194.957031 243.695312 196.957031 C 241.515625 198.957031 238.210938 200.589844 240.226562 201.234375 C 242.238281 201.878906 246.96875 201.699219 250.648438 201.238281 C 254.328125 200.773438 255.328125 200.0625 253.410156 204.058594 C 251.496094 208.054688 249.359375 211.296875 247.699219 212.320312 C 246.039062 213.34375 247.167969 213.628906 250.925781 213.335938 C 254.679688 213.042969 250.253906 216.625 242.136719 218.355469 C 234.019531 220.082031 227.332031 217.796875 223.257812 215.183594 C 219.1875 212.566406 215.433594 212.859375 215.433594 212.859375 Z M 214.265625 213.734375 " fill-opacity="1" fill-rule="nonzero"/><path fill="#000000" d="M 194.890625 194.980469 C 194.890625 194.980469 196.308594 193.949219 201.269531 196.839844 C 206.230469 199.730469 214.726562 201.410156 217.023438 195.605469 C 219.320312 189.796875 216.617188 185.074219 214.277344 181.769531 C 211.9375 178.464844 211.578125 179.449219 213.285156 182.316406 C 214.988281 185.1875 216.199219 190.773438 214.214844 194.273438 C 212.234375 197.769531 208.257812 197.394531 205.945312 195.746094 C 203.632812 194.097656 201.429688 191.628906 198.863281 192.953125 C 196.296875 194.277344 194.890625 194.980469 194.890625 194.980469 Z M 194.890625 194.980469 " fill-opacity="1" fill-rule="nonzero"/><path fill="#000000" d="M 220.933594 216.683594 C 220.933594 216.683594 215.648438 224.296875 211.195312 228.707031 C 206.742188 233.121094 207.269531 231.8125 198.460938 232.273438 C 189.648438 232.738281 170.757812 232.628906 164.089844 232.332031 C 157.421875 232.039062 159.285156 232.34375 154.394531 227.21875 C 149.503906 222.09375 146.929688 221.101562 148.746094 220.25 C 150.566406 219.394531 145.953125 218.417969 144.898438 220.953125 C 143.839844 223.488281 149.472656 225.738281 152.703125 229.234375 C 155.933594 232.734375 154.75 234.1875 158.898438 234.320312 C 163.046875 234.453125 177.207031 234.742188 185.742188 235.34375 C 194.273438 235.949219 205.988281 236.410156 207.644531 235.46875 C 209.304688 234.527344 209.238281 234.027344 210.636719 233.574219 C 212.035156 233.125 214.578125 229.894531 217.378906 226.257812 C 220.179688 222.617188 224.429688 219.441406 224.714844 218.210938 C 224.996094 216.976562 220.933594 216.683594 220.933594 216.683594 Z M 220.933594 216.683594 " fill-opacity="1" fill-rule="nonzero"/><path fill="#000000" d="M 222.136719 217.300781 C 222.136719 217.300781 218.5625 218.996094 209.230469 221.191406 C 173.417969 229.609375 154.328125 217.527344 147.421875 216.976562 C 140.519531 216.425781 135.59375 220.242188 142.90625 220.808594 C 147.871094 221.191406 167.742188 227.65625 182.773438 227.425781 C 194.992188 227.238281 211.257812 224.074219 217.09375 222.355469 C 222.929688 220.636719 222.136719 217.300781 222.136719 217.300781 Z M 222.136719 217.300781 " fill-opacity="1" fill-rule="nonzero"/><path fill="#000000" d="M 205.339844 223.21875 C 205.339844 223.21875 208.503906 226.136719 211.550781 227.726562 C 214.597656 229.3125 212.398438 229.242188 210.230469 228.34375 C 208.058594 227.449219 203.050781 223.394531 203.050781 223.394531 Z M 205.339844 223.21875 " fill-opacity="1" fill-rule="nonzero"/><path fill="#000000" d="M 164.121094 223.472656 C 163.875 223.464844 156.796875 225.890625 156.285156 229.269531 C 155.773438 232.648438 153.691406 228.851562 156.699219 226.464844 C 159.703125 224.078125 162.933594 222.359375 162.933594 222.359375 L 164.28125 223.5625 Z M 164.121094 223.472656 " fill-opacity="1" fill-rule="nonzero"/><path fill="#000000" d="M 157.457031 244.046875 C 157.457031 244.046875 157.53125 257.464844 164.359375 263.148438 C 171.1875 268.832031 187.714844 269.027344 197.511719 265.535156 C 207.3125 262.039062 207.222656 256.984375 209.351562 253.988281 C 211.480469 250.992188 214.332031 253.570312 211.90625 258.292969 C 209.480469 263.019531 203.742188 269.460938 192.453125 271.085938 C 181.164062 272.710938 168.378906 272.632812 162.695312 266.820312 C 157.011719 261.007812 157.167969 261.261719 156.027344 256.007812 C 154.886719 250.753906 153.917969 247.824219 153.851562 247.40625 C 153.78125 246.992188 156.96875 244.03125 157.457031 244.046875 Z M 157.457031 244.046875 " fill-opacity="1" fill-rule="nonzero"/><path fill="#000000" d="M 143.492188 253.207031 C 143.492188 253.207031 146.160156 259.832031 148.085938 269.996094 C 150.007812 280.160156 150.746094 286.976562 149.15625 288.167969 C 147.570312 289.359375 145.398438 289.949219 145.53125 285.730469 C 145.660156 281.511719 141.621094 259.023438 138.96875 255.710938 C 136.316406 252.394531 143.492188 253.207031 143.492188 253.207031 Z M 143.492188 253.207031 " fill-opacity="1" fill-rule="nonzero"/><path fill="#000000" d="M 182.707031 311.515625 C 184.875 311.125 183.738281 306.085938 175.960938 301.363281 C 168.183594 296.644531 150.609375 285.8125 141.285156 283.773438 C 131.960938 281.734375 135.484375 281.929688 131.257812 287.757812 C 127.03125 293.585938 124.441406 296.484375 125.886719 297.191406 C 127.328125 297.902344 129.339844 294.074219 132.828125 289.960938 C 136.3125 285.851562 135.113281 285.648438 142.105469 287.859375 C 149.097656 290.070312 160.652344 295.15625 171.707031 302.46875 C 182.761719 309.78125 181.148438 311.796875 182.707031 311.515625 Z M 182.707031 311.515625 " fill-opacity="1" fill-rule="nonzero"/><path fill="#000000" d="M 169.0625 312.722656 C 169.0625 312.722656 163.390625 306.785156 152.070312 302.535156 C 140.75 298.285156 116.867188 290.832031 113.804688 295.242188 C 110.738281 299.65625 112.511719 306.324219 114.433594 313.851562 C 116.351562 321.378906 118.542969 325.804688 119.230469 328.546875 C 119.921875 331.292969 120.246094 331.925781 121.027344 328.917969 C 121.808594 325.910156 118.515625 321.058594 116.609375 313.140625 C 114.699219 305.226562 112.660156 296.0625 116.546875 295.722656 C 120.429688 295.378906 135.730469 299.132812 146.273438 303.4375 C 156.816406 307.742188 165.359375 312.761719 167.527344 315.085938 C 169.695312 317.410156 169.0625 312.722656 169.0625 312.722656 Z M 169.0625 312.722656 " fill-opacity="1" fill-rule="nonzero"/><path fill="#000000" d="M 116.617188 318.355469 C 116.617188 318.355469 114.832031 325.917969 113.824219 330.707031 C 112.816406 335.5 109.742188 340.144531 116.019531 343.222656 C 122.296875 346.300781 128.90625 344.179688 138.9375 342.867188 C 148.96875 341.554688 170.742188 339.140625 170.925781 336.035156 C 171.109375 332.933594 169.785156 333.902344 161.960938 336.371094 C 154.132812 338.84375 133.414062 343.3125 124.144531 342.316406 C 114.871094 341.316406 117.03125 335.554688 117.054688 329.335938 C 117.074219 323.113281 118.597656 321.136719 118.597656 321.136719 Z M 116.617188 318.355469 " fill-opacity="1" fill-rule="nonzero"/><path fill="#000000" d="M 115.011719 328.492188 C 115.011719 328.492188 101.957031 335.773438 89.964844 342.078125 C 77.96875 348.378906 76.273438 347.546875 73.3125 354.140625 C 70.355469 360.734375 66.871094 367.546875 67.308594 370.046875 C 67.75 372.550781 70.859375 366.664062 75.023438 360.183594 C 79.183594 353.707031 81.351562 350.433594 84.238281 349.046875 C 87.121094 347.660156 102.855469 339.222656 109.339844 335.621094 C 115.824219 332.015625 114.75 334.238281 115.003906 328.800781 Z M 115.011719 328.492188 " fill-opacity="1" fill-rule="nonzero"/><path fill="#000000" d="M 222.25 255.726562 C 222.25 255.726562 220.59375 261.34375 220.109375 270.632812 C 219.625 279.917969 219.792969 286.085938 221.359375 286.984375 C 222.921875 287.878906 224.933594 288.179688 224.300781 284.425781 C 223.671875 280.664062 224.550781 260.140625 226.519531 256.894531 C 228.488281 253.652344 222.25 255.726562 222.25 255.726562 Z M 222.25 255.726562 " fill-opacity="1" fill-rule="nonzero"/><path fill="#000000" d="M 181.578125 309.121094 C 179.425781 308.648438 186.90625 303.710938 194.835938 299.285156 C 202.765625 294.863281 220.695312 284.707031 230.082031 283.023438 C 239.46875 281.339844 235.941406 281.402344 239.96875 287.382812 C 243.996094 293.367188 246.488281 296.363281 245.019531 297.015625 C 243.554688 297.671875 241.671875 293.769531 238.328125 289.527344 C 234.980469 285.285156 236.1875 285.125 229.125 287.074219 C 222.0625 289.019531 210.34375 293.664062 199.050781 300.550781 C 187.757812 307.4375 183.125 309.460938 181.578125 309.121094 Z M 181.578125 309.121094 " fill-opacity="1" fill-rule="nonzero"/><path fill="#000000" d="M 199.59375 311.328125 C 199.59375 311.328125 207.253906 305.367188 218.703125 301.566406 C 230.152344 297.765625 254.257812 291.257812 257.179688 295.789062 C 260.101562 300.320312 258.117188 306.914062 255.957031 314.359375 C 253.800781 321.808594 251.472656 326.144531 250.695312 328.855469 C 249.917969 331.574219 249.574219 332.191406 248.886719 329.15625 C 248.203125 326.117188 251.648438 321.402344 253.804688 313.566406 C 255.964844 305.730469 258.296875 296.652344 254.425781 296.15625 C 250.554688 295.660156 235.144531 298.8125 224.46875 302.695312 C 213.792969 306.582031 205.097656 311.257812 202.855469 313.496094 C 200.617188 315.734375 199.59375 311.328125 199.59375 311.328125 Z M 199.59375 311.328125 " fill-opacity="1" fill-rule="nonzero"/><path fill="#000000" d="M 253.628906 318.773438 C 253.628906 318.773438 255.171875 326.402344 256.03125 331.230469 C 256.886719 336.058594 259.808594 340.820312 253.433594 343.648438 C 247.066406 346.480469 240.527344 344.097656 230.542969 342.390625 C 220.5625 340.683594 199.855469 337.894531 199.769531 334.785156 C 199.6875 331.671875 200 332.210938 207.746094 334.988281 C 215.488281 337.765625 236.050781 343.050781 245.347656 342.421875 C 254.644531 341.792969 252.667969 335.949219 252.84375 329.730469 C 253.023438 323.511719 251.5625 321.480469 251.5625 321.480469 Z M 253.628906 318.773438 " fill-opacity="1" fill-rule="nonzero"/><path fill="#000000" d="M 254.914062 328.96875 C 254.914062 328.96875 267.726562 336.761719 279.511719 343.535156 C 291.296875 350.308594 293.019531 349.542969 295.765625 356.25 C 298.515625 362.957031 301.78125 369.898438 301.261719 372.386719 C 300.746094 374.867188 297.820312 368.863281 293.871094 362.222656 C 289.917969 355.582031 287.855469 352.226562 285.015625 350.726562 C 282.175781 349.230469 270.0625 341.3125 263.695312 337.453125 C 257.328125 333.597656 254.992188 334.722656 254.914062 329.28125 Z M 254.914062 328.96875 " fill-opacity="1" fill-rule="nonzero"/><path fill="#000000" d="M 199.625 310.277344 C 201.738281 311.261719 203.925781 317.300781 203.824219 324.878906 C 203.714844 332.460938 201.878906 337.652344 197.199219 338.550781 C 192.523438 339.449219 174.179688 339.445312 171.335938 339.472656 C 168.492188 339.5 166.875 333.378906 166.339844 325.664062 C 165.804688 317.945312 164.710938 311.496094 167.992188 309.851562 C 171.273438 308.207031 179.132812 308.808594 186.75 308.9375 C 194.367188 309.0625 200.226562 307.5 201.570312 314.191406 C 202.914062 320.886719 200.460938 316.605469 199.597656 315.296875 C 198.734375 313.984375 191.6875 312.125 181.089844 312.371094 C 170.488281 312.613281 169.734375 311.890625 169.617188 315.734375 C 169.5 319.582031 169.027344 326.449219 170.566406 330.933594 C 172.109375 335.414062 171.738281 334.820312 177.269531 335.578125 C 182.800781 336.339844 197.191406 338.785156 199.871094 331.519531 C 202.550781 324.257812 201.808594 314.902344 196.699219 312.984375 C 191.59375 311.074219 195.292969 308.277344 199.625 310.277344 Z M 199.625 310.277344 " fill-opacity="1" fill-rule="nonzero"/><path fill="#000000" d="M 179.042969 315.804688 C 179.625 317.960938 179.960938 327.964844 182.789062 328.40625 C 185.617188 328.847656 183.113281 317.917969 187.128906 317.464844 C 191.148438 317.007812 192.734375 320.09375 194.347656 326.328125 C 195.964844 332.5625 194.386719 337.527344 193.488281 333.179688 C 192.589844 328.839844 189.417969 318.703125 188.257812 318.664062 C 187.09375 318.628906 186.925781 328.304688 183.648438 329.835938 C 180.371094 331.363281 179.097656 326.652344 178.433594 323.015625 C 177.773438 319.378906 178.351562 313.214844 179.042969 315.804688 Z M 179.042969 315.804688 " fill-opacity="1" fill-rule="nonzero"/><path fill="#000000" d="M 138.6875 313.460938 C 143.007812 314.1875 147.1875 314.199219 156.628906 318.003906 C 166.070312 321.804688 167.742188 326.292969 167.792969 324.542969 C 167.847656 322.792969 162.972656 317.621094 154.535156 314.667969 C 146.101562 311.714844 128.40625 311.730469 138.6875 313.460938 Z M 138.6875 313.460938 " fill-opacity="1" fill-rule="nonzero"/><path fill="#000000" d="M 140.757812 325.777344 C 143.273438 326.441406 145.332031 328.257812 153.890625 327.246094 C 162.445312 326.238281 167.566406 323.601562 167.769531 325.359375 C 167.972656 327.117188 163.046875 327.65625 156.777344 329.90625 C 150.507812 332.15625 150.136719 331.5625 148.207031 331.382812 C 146.273438 331.203125 134.226562 324.050781 140.757812 325.777344 Z M 140.757812 325.777344 " fill-opacity="1" fill-rule="nonzero"/><path fill="#000000" d="M 201.480469 317.105469 C 201.480469 317.105469 206.449219 315.164062 212.425781 314.074219 C 218.402344 312.980469 225.519531 312.511719 218.855469 314.980469 C 212.191406 317.449219 204.660156 318.726562 202.804688 320.183594 C 200.953125 321.640625 201.480469 317.105469 201.480469 317.105469 Z M 201.480469 317.105469 " fill-opacity="1" fill-rule="nonzero"/><path fill="#000000" d="M 202.875 322.167969 C 203.648438 322.191406 208.859375 324.925781 219.117188 327.351562 C 229.375 329.78125 232.199219 330.339844 227.160156 326.210938 C 222.121094 322.082031 220.625 320.402344 225.089844 322.179688 C 229.558594 323.957031 233.1875 327.6875 231.148438 330.890625 C 229.113281 334.089844 225.917969 332.9375 216.03125 330.988281 C 206.148438 329.039062 201.976562 326.105469 201.976562 326.105469 Z M 202.875 322.167969 " fill-opacity="1" fill-rule="nonzero"/><path fill="#000000" d="M 121.683594 85.722656 C 120.988281 88.410156 125.554688 86.964844 138.480469 91.605469 C 151.40625 96.242188 158.605469 96.597656 166.359375 98.582031 C 174.117188 100.570312 171.335938 99.738281 174.839844 96.992188 C 178.347656 94.246094 177.832031 91.125 172.042969 80.753906 C 166.257812 70.382812 158.726562 65.050781 139.074219 64.542969 C 119.421875 64.039062 108.800781 69.082031 107.496094 71.773438 C 106.191406 74.460938 99.640625 86.09375 98.847656 90.625 C 98.058594 95.152344 100.070312 95.882812 106.382812 94.59375 C 112.691406 93.304688 125.632812 90.984375 132.878906 91.050781 C 140.125 91.117188 142.46875 91.773438 145.796875 92.046875 C 149.125 92.316406 134.988281 86.066406 128.269531 87.425781 C 121.546875 88.785156 111.140625 90.769531 106.121094 92.429688 C 101.105469 94.089844 99.910156 93.144531 102.359375 87.757812 C 104.804688 82.367188 108.285156 75.191406 109.636719 73.664062 C 110.988281 72.132812 113.253906 72.535156 118.027344 70.949219 C 122.800781 69.363281 132.320312 67.019531 144.902344 68.332031 C 157.484375 69.648438 160.265625 71.886719 165.136719 77.59375 C 170.011719 83.296875 172.207031 91.234375 172.617188 93.816406 C 173.027344 96.394531 169.675781 96.785156 164.769531 94.722656 C 159.867188 92.660156 151.960938 90.253906 139.4375 87.039062 C 126.914062 83.820312 122.191406 83.753906 121.683594 85.722656 Z M 121.683594 85.722656 " fill-opacity="1" fill-rule="nonzero"/><path fill="#000000" d="M 241.347656 83.511719 C 240.355469 84.203125 238.039062 85.144531 230.265625 86.304688 C 222.496094 87.464844 217.128906 89.777344 210.429688 93.039062 C 203.730469 96.300781 202.054688 97.90625 197.921875 97.277344 C 193.785156 96.644531 189.507812 90.214844 188.597656 87.949219 C 187.691406 85.6875 188.066406 84.039062 190.867188 80.40625 C 193.667969 76.769531 202.523438 61.730469 219.316406 61.191406 C 236.109375 60.65625 253.136719 70.972656 259.230469 76.796875 C 265.316406 82.625 265.964844 85.460938 264.351562 90.210938 C 262.738281 94.960938 260.953125 94.65625 253.917969 93.105469 C 246.878906 91.558594 236.835938 89.828125 226.902344 89.757812 C 216.96875 89.6875 215.707031 90.890625 211.285156 91.742188 C 206.859375 92.59375 216.929688 88.195312 222.445312 86.382812 C 227.957031 84.574219 228.226562 86.40625 234.71875 87.191406 C 241.207031 87.980469 253.175781 90.847656 257.820312 90.664062 C 262.46875 90.484375 261.976562 87.984375 261.316406 85.644531 C 260.65625 83.304688 248.648438 71.324219 238.324219 68.011719 C 228.003906 64.699219 215.847656 65.386719 208.832031 68.394531 C 201.816406 71.398438 194.703125 80.113281 192.925781 82.292969 C 191.148438 84.472656 190.070312 85.183594 192.800781 88.996094 C 195.535156 92.808594 193.820312 92.839844 197.953125 93.550781 C 202.085938 94.261719 201.863281 93.511719 208.304688 90.734375 C 214.742188 87.960938 220.136719 84.65625 227.816406 83.90625 C 235.492188 83.160156 243.511719 82.007812 241.347656 83.511719 Z M 241.347656 83.511719 " fill-opacity="1" fill-rule="nonzero"/><path fill="#000000" d="M 63.957031 146.976562 C 63.585938 147.089844 58.4375 147.671875 50.609375 151.890625 C 42.785156 156.113281 37.363281 157.554688 36.421875 156.40625 C 35.480469 155.257812 31.253906 150.941406 34.472656 140.441406 C 37.328125 131.136719 37.917969 131.734375 40.382812 127.21875 C 42.84375 122.699219 42.761719 121.332031 39.773438 123.097656 C 36.789062 124.867188 33.644531 126.464844 32.90625 121.386719 C 32.167969 116.3125 33.363281 111.878906 35.007812 108.703125 C 36.65625 105.523438 37.027344 106.613281 32.347656 105.222656 C 27.667969 103.832031 24.339844 103.476562 21.316406 103.792969 C 18.292969 104.109375 19.09375 101.980469 22.007812 99.839844 C 24.925781 97.699219 29.71875 95.449219 33.75 94.085938 C 37.765625 92.734375 38.660156 93.335938 36.355469 91.519531 C 32.871094 88.78125 23.359375 77.277344 21.546875 64.796875 C 19.734375 52.316406 20.476562 44.140625 23.214844 42.488281 C 25.953125 40.839844 25.675781 44.554688 36.898438 47.730469 C 48.121094 50.90625 48.609375 48.273438 55.359375 48.570312 C 62.109375 48.871094 63.371094 50.238281 64.363281 49.6875 C 65.359375 49.140625 58.808594 44.742188 53.972656 43.308594 C 46.46875 41.082031 47.710938 40.203125 50.636719 37.984375 C 54.308594 35.203125 58.746094 33.941406 63.820312 33.109375 C 70.859375 31.957031 69.15625 31.789062 65.515625 30.925781 C 61.878906 30.066406 57.410156 29.757812 52.363281 29.59375 C 47.320312 29.433594 45.140625 28.78125 50.980469 24.332031 C 54.480469 21.664062 60.859375 18.273438 73.5625 18.347656 C 86.265625 18.425781 91.320312 20.820312 98.023438 22.691406 C 102.121094 23.835938 102.363281 21.839844 104.378906 19.914062 C 106.394531 17.992188 105.695312 16.894531 112.386719 19.097656 C 119.078125 21.296875 122.640625 24.558594 122.640625 24.558594 L 119.316406 26.6875 C 119.316406 26.6875 116.855469 24.703125 112.507812 22.992188 C 108.164062 21.277344 106.308594 20.722656 104.421875 23.808594 C 102.535156 26.894531 102.117188 27.210938 96.621094 25.796875 C 91.128906 24.378906 81.722656 20.433594 69.992188 20.554688 C 58.257812 20.675781 52.882812 26.050781 52.773438 26.875 C 52.667969 27.699219 54.59375 26.023438 63.753906 27.390625 C 72.914062 28.761719 85.320312 35.039062 83.765625 38.550781 C 83.152344 39.9375 80.132812 34.808594 68.121094 36.226562 C 52.671875 38.050781 53.769531 39.410156 56.738281 40.832031 C 59.710938 42.25 66.640625 47.195312 68.765625 52.230469 C 70.890625 57.265625 67.835938 53.359375 58.007812 52.546875 C 48.175781 51.738281 50.707031 54.21875 41.082031 52.007812 C 31.460938 49.792969 27.238281 46.675781 25.6875 46.792969 C 24.136719 46.910156 24.628906 53.425781 25.230469 61.601562 C 25.976562 71.726562 30.5625 81.316406 36.253906 86.960938 C 41.941406 92.609375 46.703125 91.355469 43.0625 93.308594 C 39.417969 95.261719 36.636719 95.585938 32.441406 97.027344 C 28.242188 98.464844 21.726562 101.15625 27.171875 101.496094 C 32.617188 101.835938 40.539062 103.664062 40.824219 104.996094 C 41.109375 106.332031 36.902344 108.019531 35.921875 113.371094 C 34.945312 118.71875 33.878906 124.152344 37.367188 122.027344 C 40.851562 119.902344 46.386719 114.699219 47.914062 115.410156 C 49.441406 116.121094 47.890625 121.371094 44.386719 126.722656 C 40.882812 132.078125 39.449219 134.085938 37.527344 140.417969 C 35.714844 146.402344 35.667969 153.109375 39.609375 152.160156 C 43.546875 151.210938 53.144531 146.382812 56.679688 145.253906 C 60.21875 144.125 62.828125 143.960938 62.828125 143.960938 Z M 63.957031 146.976562 " fill-opacity="1" fill-rule="nonzero"/><path fill="#000000" d="M 96.058594 101.878906 C 96.058594 101.878906 95.433594 93.164062 99.507812 82.53125 C 103.582031 71.894531 109.804688 65.554688 110.152344 59.683594 C 110.496094 53.816406 105.859375 56.316406 105.191406 51.574219 C 104.523438 46.835938 106.503906 40.6875 115.242188 32.105469 C 123.976562 23.523438 141.019531 12.3125 157.703125 7.464844 C 174.382812 2.617188 202.011719 5.371094 220.597656 14.527344 C 241.457031 24.804688 251.574219 37.300781 256.179688 43.824219 C 260.78125 50.347656 260.671875 53.90625 256.5 57.085938 C 252.328125 60.261719 253.15625 65.175781 257.128906 70.933594 C 261.105469 76.691406 268.929688 81.746094 272.875 88.414062 C 276.824219 95.082031 275.316406 104.308594 274.261719 106.761719 C 273.207031 109.210938 278.761719 103.507812 278.761719 103.507812 C 278.761719 103.507812 280.207031 96.269531 277.472656 89.886719 C 274.738281 83.507812 265.171875 76.90625 259.664062 67.953125 C 254.160156 58.996094 257.546875 62.75 259.917969 59.84375 C 261.855469 57.464844 263.601562 51.347656 260.988281 46.296875 C 256.023438 36.695312 244.386719 24.898438 228.472656 15.363281 C 207.367188 2.710938 184.558594 0.125 162.636719 3.316406 C 142.738281 6.207031 116.921875 25.121094 108.609375 35.785156 C 100.300781 46.449219 100.769531 52.34375 105.628906 55.730469 C 110.496094 59.117188 106.488281 59.648438 103.070312 67.324219 C 99.660156 75 94.121094 85.503906 93.058594 90.9375 C 91.992188 96.367188 92.507812 98.125 92.507812 98.125 C 92.507812 98.125 95.3125 102.269531 96.058594 101.878906 Z M 96.058594 101.878906 " fill-opacity="1" fill-rule="nonzero"/><path fill="#000000" d="M 231.148438 18.425781 C 231.148438 18.425781 235.347656 16.949219 242.335938 16.054688 C 249.328125 15.160156 253.695312 16.167969 254.988281 17.824219 C 256.28125 19.480469 253.503906 22.375 250.996094 24.40625 C 248.488281 26.4375 249.726562 25.980469 261.066406 22.742188 C 272.40625 19.5 277.949219 17.9375 286.734375 18.347656 C 295.515625 18.75 296.144531 22.125 295.621094 23.351562 C 295.089844 24.574219 291.34375 27.3125 288.242188 32.679688 C 285.148438 38.042969 282.628906 40.449219 286.667969 40.207031 C 290.707031 39.960938 303.242188 37.507812 314.484375 41.34375 C 325.726562 45.183594 339.9375 55.699219 347.105469 60.898438 C 354.277344 66.097656 356.542969 67.78125 350.9375 67.355469 C 345.332031 66.929688 332.90625 69.757812 327.6875 72.574219 C 322.46875 75.386719 319.367188 75.0625 324.007812 77.050781 C 328.707031 79.066406 335.679688 82.765625 340.320312 90.742188 C 347.304688 102.75 347.039062 110.457031 347.59375 116.191406 C 348.019531 120.601562 344.671875 119.824219 336.132812 119.300781 C 327.601562 118.777344 323.757812 116.542969 325.171875 118.328125 C 326.582031 120.113281 331.144531 126.59375 330.929688 133.542969 C 330.714844 140.492188 331.425781 141.136719 324.332031 137.554688 C 317.234375 133.972656 312.6875 134.820312 309.449219 136.832031 C 306.210938 138.835938 305.347656 135.207031 309.566406 133.105469 C 313.785156 131.007812 313.804688 130.261719 317.785156 132.003906 C 321.761719 133.746094 327.171875 136.527344 327.542969 136.414062 C 327.910156 136.304688 328.582031 130.488281 325.003906 123.789062 C 321.421875 117.089844 315.769531 110.203125 320.222656 112.457031 C 324.671875 114.710938 335.507812 116.136719 340.632812 116.089844 C 346.742188 116.039062 345.207031 114.375 341.457031 101.335938 C 337.707031 88.296875 327.390625 82.128906 321.246094 79.449219 C 315.742188 77.046875 313.136719 76.953125 321.480469 71.878906 C 329.820312 66.804688 344.285156 65.277344 346.746094 64.613281 C 349.210938 63.945312 330.046875 50.289062 314.460938 44.699219 C 298.878906 39.105469 284.367188 43.484375 281.300781 43.882812 C 278.234375 44.28125 279.757812 38.492188 284.351562 32.183594 C 288.945312 25.867188 293.925781 22.796875 292.238281 22 C 290.554688 21.199219 284.789062 18.035156 272.09375 21.726562 C 259.394531 25.417969 248.890625 29.304688 247.589844 27.898438 C 246.289062 26.488281 251.457031 21.3125 252.738281 19.492188 C 254.015625 17.667969 245.804688 18.523438 239.90625 19.578125 C 234.011719 20.628906 235.933594 21.6875 235.933594 21.6875 Z M 231.148438 18.425781 " fill-opacity="1" fill-rule="nonzero"/><path fill="#000000" d="M 249.585938 62.121094 C 250.472656 64.300781 243.035156 56.570312 224.765625 54.867188 C 206.496094 53.164062 195.914062 55.558594 180.207031 57.789062 C 164.503906 60.015625 149.375 55.433594 139.949219 52.148438 C 130.519531 48.867188 132.28125 47.308594 125.378906 49.199219 C 118.480469 51.089844 114.664062 55.9375 113.828125 55.289062 C 112.996094 54.640625 121.464844 49.320312 125.695312 46.847656 C 129.925781 44.378906 131.492188 45.171875 143.175781 50.515625 C 154.859375 55.855469 163.964844 57.640625 184.925781 55.332031 C 205.886719 53.019531 215.316406 48.355469 226.617188 50.332031 C 237.914062 52.308594 247.992188 58.21875 249.585938 62.121094 Z M 249.585938 62.121094 " fill-opacity="1" fill-rule="nonzero"/><path fill="#000000" d="M 201.746094 44.8125 C 200.144531 45.660156 189.917969 48.035156 178.945312 47.3125 C 167.972656 46.589844 163.261719 40.847656 164.976562 40.777344 C 166.6875 40.710938 168.300781 43.867188 176.972656 44.019531 C 185.636719 44.171875 191.882812 43.753906 195.8125 43.132812 C 199.738281 42.511719 203.730469 43.757812 201.746094 44.8125 Z M 201.746094 44.8125 " fill-opacity="1" fill-rule="nonzero"/></svg>